<svg xmlns="http://www.w3.org/2000/svg" enable-background="new 0 0 24 24" viewBox="0 0 24 24"><path d="M13.5 24c-.062 0-.125-.012-.185-.035C13.125 23.889 13 23.705 13 23.5v-3.529H5.848c-1.846 0-3.348-1.595-3.348-3.555V15.5C2.5 15.224 2.724 15 3 15h17.999c.276 0 .5.224.5.5v.916c0 1.96-1.502 3.555-3.348 3.555h-.614l-3.674 3.873C13.767 23.945 13.634 24 13.5 24zM3.5 16l0 .417c0 1.407 1.053 2.554 2.348 2.554H13.5c.276 0 .5.224.5.5v2.775l2.959-3.119c.094-.1.226-.156.363-.156h.829c1.294 0 2.348-1.146 2.348-2.555V16H3.5zM20.999 5H3C2.724 5 2.5 4.776 2.5 4.5V3.541C2.5 1.589 4.002 0 5.848 0h12.298c1.843 0 3.348 1.588 3.353 3.54V4.5C21.499 4.776 21.275 5 20.999 5zM3.5 4h16.999V3.541C20.496 2.141 19.44 1 18.146 1H5.848C4.553 1 3.5 2.14 3.5 3.541V4zM21 10H3.001c-.276 0-.5-.224-.5-.5V6c0-.276.224-.5.5-.5H21c.276 0 .5.224.5.5v3.5C21.5 9.776 21.276 10 21 10zM3.501 9H20.5V6.5H3.501V9zM21 14.5H3.001c-.276 0-.5-.224-.5-.5v-3c0-.276.224-.5.5-.5H21c.276 0 .5.224.5.5v3C21.5 14.276 21.276 14.5 21 14.5zM3.501 13.5H20.5v-2H3.501V13.5z"/></svg>